 <svg
      width="40"
      height="62"
      viewBox="0 0 40 62"
      fill="none"
      xmlns="http://www.w3.org/2000/svg"
    >
      <path
        d="M4.20226 61.9997C3.75482 62.0017 3.31127 61.9365 2.89704 61.808C2.48281 61.6794 2.10606 61.49 1.78838 61.2506C1.46972 61.0104 1.21679 60.7247 1.04419 60.4099C0.871581 60.0951 0.782715 59.7574 0.782715 59.4164C0.782715 59.0754 0.871581 58.7377 1.04419 58.4229C1.21679 58.1081 1.46972 57.8224 1.78838 57.5823L29.565 36.4764C31.475 35.0233 32.5479 33.0535 32.5479 30.9998C32.5479 28.946 31.475 26.9763 29.565 25.5231L1.78838 4.41732C1.14818 3.93087 0.788517 3.2711 0.788517 2.58316C0.788517 1.89521 1.14818 1.23544 1.78838 0.748993C2.42858 0.262543 3.29688 -0.0107422 4.20226 -0.0107422C5.10764 -0.0107422 5.97594 0.262543 6.61614 0.748993L34.3927 21.8548C35.9758 23.0546 37.2318 24.48 38.0888 26.0493C38.9458 27.6185 39.3869 29.3008 39.3869 30.9998C39.3869 32.6988 38.9458 34.3811 38.0888 35.9503C37.2318 37.5196 35.9758 38.9449 34.3927 40.1448L6.61614 61.2506C6.29846 61.49 5.9217 61.6794 5.50747 61.808C5.09325 61.9365 4.6497 62.0017 4.20226 61.9997Z"
        fill="#FAFFBF"
        fill-opacity="0.5"
      />
    </svg>